<mxfile host="app.diagrams.net" modified="2021-10-13T07:18:35.681Z" agent="5.0 (Windows NT 10.0; Win64; x64) AppleWebKit/537.36 (KHTML, like Gecko) Chrome/94.0.4606.81 Safari/537.36" etag="X_-S-53u0KlUl6ZH733S" version="15.5.1" type="github">
  <diagram id="uMo91K_cIclCSR_WbYvM" name="第 1 页">
    <mxGraphModel dx="1038" dy="547" grid="1" gridSize="10" guides="1" tooltips="1" connect="1" arrows="1" fold="1" page="1" pageScale="1" pageWidth="827" pageHeight="1169" math="0" shadow="0">
      <root>
        <mxCell id="0" />
        <mxCell id="1" parent="0" />
        <mxCell id="gdIUitbwl2ph-0HCh6gZ-14" value="Y" style="edgeStyle=orthogonalEdgeStyle;rounded=0;orthogonalLoop=1;jettySize=auto;html=1;" edge="1" parent="1" source="gdIUitbwl2ph-0HCh6gZ-2" target="gdIUitbwl2ph-0HCh6gZ-13">
          <mxGeometry relative="1" as="geometry" />
        </mxCell>
        <mxCell id="gdIUitbwl2ph-0HCh6gZ-15" value="N" style="edgeStyle=orthogonalEdgeStyle;rounded=0;orthogonalLoop=1;jettySize=auto;html=1;entryX=0.5;entryY=0;entryDx=0;entryDy=0;" edge="1" parent="1" source="gdIUitbwl2ph-0HCh6gZ-2" target="gdIUitbwl2ph-0HCh6gZ-9">
          <mxGeometry relative="1" as="geometry" />
        </mxCell>
        <mxCell id="gdIUitbwl2ph-0HCh6gZ-2" value="c.closed != 0?" style="rhombus;whiteSpace=wrap;html=1;" vertex="1" parent="1">
          <mxGeometry x="265" y="410" width="110" height="70" as="geometry" />
        </mxCell>
        <mxCell id="gdIUitbwl2ph-0HCh6gZ-49" value="" style="edgeStyle=orthogonalEdgeStyle;rounded=0;orthogonalLoop=1;jettySize=auto;html=1;" edge="1" parent="1" source="gdIUitbwl2ph-0HCh6gZ-3" target="gdIUitbwl2ph-0HCh6gZ-5">
          <mxGeometry relative="1" as="geometry" />
        </mxCell>
        <mxCell id="gdIUitbwl2ph-0HCh6gZ-3" value="closechan start" style="rounded=1;whiteSpace=wrap;html=1;" vertex="1" parent="1">
          <mxGeometry x="270" y="130" width="100" height="50" as="geometry" />
        </mxCell>
        <mxCell id="gdIUitbwl2ph-0HCh6gZ-4" value="panic(&quot;close of nil channel&quot;)" style="rounded=1;whiteSpace=wrap;html=1;fillColor=#f8cecc;strokeColor=#b85450;" vertex="1" parent="1">
          <mxGeometry x="480" y="220" width="100" height="50" as="geometry" />
        </mxCell>
        <mxCell id="gdIUitbwl2ph-0HCh6gZ-6" value="Y" style="edgeStyle=orthogonalEdgeStyle;rounded=0;orthogonalLoop=1;jettySize=auto;html=1;" edge="1" parent="1" source="gdIUitbwl2ph-0HCh6gZ-5" target="gdIUitbwl2ph-0HCh6gZ-4">
          <mxGeometry relative="1" as="geometry" />
        </mxCell>
        <mxCell id="gdIUitbwl2ph-0HCh6gZ-8" value="N" style="edgeStyle=orthogonalEdgeStyle;rounded=0;orthogonalLoop=1;jettySize=auto;html=1;" edge="1" parent="1" source="gdIUitbwl2ph-0HCh6gZ-5" target="gdIUitbwl2ph-0HCh6gZ-7">
          <mxGeometry relative="1" as="geometry" />
        </mxCell>
        <mxCell id="gdIUitbwl2ph-0HCh6gZ-5" value="channel is nil" style="rhombus;whiteSpace=wrap;html=1;" vertex="1" parent="1">
          <mxGeometry x="265" y="210" width="110" height="70" as="geometry" />
        </mxCell>
        <mxCell id="gdIUitbwl2ph-0HCh6gZ-16" style="edgeStyle=orthogonalEdgeStyle;rounded=0;orthogonalLoop=1;jettySize=auto;html=1;" edge="1" parent="1" source="gdIUitbwl2ph-0HCh6gZ-7" target="gdIUitbwl2ph-0HCh6gZ-2">
          <mxGeometry relative="1" as="geometry" />
        </mxCell>
        <mxCell id="gdIUitbwl2ph-0HCh6gZ-7" value="LOCK" style="rounded=1;whiteSpace=wrap;html=1;" vertex="1" parent="1">
          <mxGeometry x="270" y="320" width="100" height="50" as="geometry" />
        </mxCell>
        <mxCell id="gdIUitbwl2ph-0HCh6gZ-12" style="edgeStyle=orthogonalEdgeStyle;rounded=0;orthogonalLoop=1;jettySize=auto;html=1;" edge="1" parent="1" target="gdIUitbwl2ph-0HCh6gZ-11">
          <mxGeometry relative="1" as="geometry">
            <mxPoint x="320" y="550" as="sourcePoint" />
          </mxGeometry>
        </mxCell>
        <mxCell id="gdIUitbwl2ph-0HCh6gZ-9" value="c.closed=1" style="rounded=1;whiteSpace=wrap;html=1;" vertex="1" parent="1">
          <mxGeometry x="270" y="520" width="100" height="50" as="geometry" />
        </mxCell>
        <mxCell id="gdIUitbwl2ph-0HCh6gZ-18" style="edgeStyle=orthogonalEdgeStyle;rounded=0;orthogonalLoop=1;jettySize=auto;html=1;" edge="1" parent="1" source="gdIUitbwl2ph-0HCh6gZ-11" target="gdIUitbwl2ph-0HCh6gZ-17">
          <mxGeometry relative="1" as="geometry" />
        </mxCell>
        <mxCell id="gdIUitbwl2ph-0HCh6gZ-11" value="var glist gList" style="rounded=1;whiteSpace=wrap;html=1;" vertex="1" parent="1">
          <mxGeometry x="270" y="590" width="100" height="50" as="geometry" />
        </mxCell>
        <mxCell id="gdIUitbwl2ph-0HCh6gZ-13" value="panic(&quot;close of closed channel&quot;)" style="rounded=1;whiteSpace=wrap;html=1;fillColor=#f8cecc;strokeColor=#b85450;" vertex="1" parent="1">
          <mxGeometry x="480" y="420" width="100" height="50" as="geometry" />
        </mxCell>
        <mxCell id="gdIUitbwl2ph-0HCh6gZ-20" value="N" style="edgeStyle=orthogonalEdgeStyle;rounded=0;orthogonalLoop=1;jettySize=auto;html=1;entryX=0;entryY=0.5;entryDx=0;entryDy=0;" edge="1" parent="1" source="gdIUitbwl2ph-0HCh6gZ-17">
          <mxGeometry relative="1" as="geometry">
            <mxPoint x="410" y="725" as="targetPoint" />
          </mxGeometry>
        </mxCell>
        <mxCell id="gdIUitbwl2ph-0HCh6gZ-30" value="Y" style="edgeStyle=orthogonalEdgeStyle;rounded=0;orthogonalLoop=1;jettySize=auto;html=1;" edge="1" parent="1" source="gdIUitbwl2ph-0HCh6gZ-17" target="gdIUitbwl2ph-0HCh6gZ-29">
          <mxGeometry relative="1" as="geometry" />
        </mxCell>
        <mxCell id="gdIUitbwl2ph-0HCh6gZ-17" value="c.recvq is empty?" style="rhombus;whiteSpace=wrap;html=1;" vertex="1" parent="1">
          <mxGeometry x="265" y="690" width="110" height="70" as="geometry" />
        </mxCell>
        <mxCell id="gdIUitbwl2ph-0HCh6gZ-26" value="" style="edgeStyle=orthogonalEdgeStyle;rounded=0;orthogonalLoop=1;jettySize=auto;html=1;" edge="1" parent="1" source="gdIUitbwl2ph-0HCh6gZ-23" target="gdIUitbwl2ph-0HCh6gZ-24">
          <mxGeometry relative="1" as="geometry" />
        </mxCell>
        <mxCell id="gdIUitbwl2ph-0HCh6gZ-23" value="set gp" style="rounded=1;whiteSpace=wrap;html=1;" vertex="1" parent="1">
          <mxGeometry x="410" y="700" width="100" height="50" as="geometry" />
        </mxCell>
        <mxCell id="gdIUitbwl2ph-0HCh6gZ-27" value="" style="edgeStyle=orthogonalEdgeStyle;rounded=0;orthogonalLoop=1;jettySize=auto;html=1;" edge="1" parent="1" source="gdIUitbwl2ph-0HCh6gZ-24" target="gdIUitbwl2ph-0HCh6gZ-25">
          <mxGeometry relative="1" as="geometry" />
        </mxCell>
        <mxCell id="gdIUitbwl2ph-0HCh6gZ-24" value="set sg" style="rounded=1;whiteSpace=wrap;html=1;" vertex="1" parent="1">
          <mxGeometry x="540" y="700" width="100" height="50" as="geometry" />
        </mxCell>
        <mxCell id="gdIUitbwl2ph-0HCh6gZ-28" style="edgeStyle=orthogonalEdgeStyle;rounded=0;orthogonalLoop=1;jettySize=auto;html=1;" edge="1" parent="1" source="gdIUitbwl2ph-0HCh6gZ-25">
          <mxGeometry relative="1" as="geometry">
            <mxPoint x="320" y="670" as="targetPoint" />
            <Array as="points">
              <mxPoint x="790" y="725" />
              <mxPoint x="790" y="670" />
            </Array>
          </mxGeometry>
        </mxCell>
        <mxCell id="gdIUitbwl2ph-0HCh6gZ-25" value="glist.push(gp)" style="rounded=1;whiteSpace=wrap;html=1;" vertex="1" parent="1">
          <mxGeometry x="670" y="700" width="100" height="50" as="geometry" />
        </mxCell>
        <mxCell id="gdIUitbwl2ph-0HCh6gZ-36" value="N" style="edgeStyle=orthogonalEdgeStyle;rounded=0;orthogonalLoop=1;jettySize=auto;html=1;" edge="1" parent="1" source="gdIUitbwl2ph-0HCh6gZ-29" target="gdIUitbwl2ph-0HCh6gZ-32">
          <mxGeometry relative="1" as="geometry" />
        </mxCell>
        <mxCell id="gdIUitbwl2ph-0HCh6gZ-51" value="Y" style="edgeStyle=orthogonalEdgeStyle;rounded=0;orthogonalLoop=1;jettySize=auto;html=1;" edge="1" parent="1" source="gdIUitbwl2ph-0HCh6gZ-29" target="gdIUitbwl2ph-0HCh6gZ-50">
          <mxGeometry relative="1" as="geometry" />
        </mxCell>
        <mxCell id="gdIUitbwl2ph-0HCh6gZ-29" value="c.sendq is empty?" style="rhombus;whiteSpace=wrap;html=1;" vertex="1" parent="1">
          <mxGeometry x="265" y="800" width="110" height="70" as="geometry" />
        </mxCell>
        <mxCell id="gdIUitbwl2ph-0HCh6gZ-31" value="" style="edgeStyle=orthogonalEdgeStyle;rounded=0;orthogonalLoop=1;jettySize=auto;html=1;" edge="1" parent="1" source="gdIUitbwl2ph-0HCh6gZ-32" target="gdIUitbwl2ph-0HCh6gZ-34">
          <mxGeometry relative="1" as="geometry" />
        </mxCell>
        <mxCell id="gdIUitbwl2ph-0HCh6gZ-32" value="set gp" style="rounded=1;whiteSpace=wrap;html=1;" vertex="1" parent="1">
          <mxGeometry x="410" y="810" width="100" height="50" as="geometry" />
        </mxCell>
        <mxCell id="gdIUitbwl2ph-0HCh6gZ-33" value="" style="edgeStyle=orthogonalEdgeStyle;rounded=0;orthogonalLoop=1;jettySize=auto;html=1;" edge="1" parent="1" source="gdIUitbwl2ph-0HCh6gZ-34" target="gdIUitbwl2ph-0HCh6gZ-35">
          <mxGeometry relative="1" as="geometry" />
        </mxCell>
        <mxCell id="gdIUitbwl2ph-0HCh6gZ-34" value="set sg" style="rounded=1;whiteSpace=wrap;html=1;" vertex="1" parent="1">
          <mxGeometry x="540" y="810" width="100" height="50" as="geometry" />
        </mxCell>
        <mxCell id="gdIUitbwl2ph-0HCh6gZ-37" style="edgeStyle=orthogonalEdgeStyle;rounded=0;orthogonalLoop=1;jettySize=auto;html=1;" edge="1" parent="1" source="gdIUitbwl2ph-0HCh6gZ-35">
          <mxGeometry relative="1" as="geometry">
            <mxPoint x="320" y="780" as="targetPoint" />
            <Array as="points">
              <mxPoint x="790" y="835" />
              <mxPoint x="790" y="780" />
            </Array>
          </mxGeometry>
        </mxCell>
        <mxCell id="gdIUitbwl2ph-0HCh6gZ-35" value="glist.push(gp)" style="rounded=1;whiteSpace=wrap;html=1;" vertex="1" parent="1">
          <mxGeometry x="670" y="810" width="100" height="50" as="geometry" />
        </mxCell>
        <mxCell id="gdIUitbwl2ph-0HCh6gZ-42" value="N" style="edgeStyle=orthogonalEdgeStyle;rounded=0;orthogonalLoop=1;jettySize=auto;html=1;" edge="1" parent="1" source="gdIUitbwl2ph-0HCh6gZ-38" target="gdIUitbwl2ph-0HCh6gZ-39">
          <mxGeometry relative="1" as="geometry" />
        </mxCell>
        <mxCell id="gdIUitbwl2ph-0HCh6gZ-48" value="Y" style="edgeStyle=orthogonalEdgeStyle;rounded=0;orthogonalLoop=1;jettySize=auto;html=1;" edge="1" parent="1" source="gdIUitbwl2ph-0HCh6gZ-38" target="gdIUitbwl2ph-0HCh6gZ-47">
          <mxGeometry relative="1" as="geometry" />
        </mxCell>
        <mxCell id="gdIUitbwl2ph-0HCh6gZ-38" value="gList is empty" style="rhombus;whiteSpace=wrap;html=1;" vertex="1" parent="1">
          <mxGeometry x="265" y="970" width="110" height="70" as="geometry" />
        </mxCell>
        <mxCell id="gdIUitbwl2ph-0HCh6gZ-43" value="" style="edgeStyle=orthogonalEdgeStyle;rounded=0;orthogonalLoop=1;jettySize=auto;html=1;" edge="1" parent="1" source="gdIUitbwl2ph-0HCh6gZ-39" target="gdIUitbwl2ph-0HCh6gZ-40">
          <mxGeometry relative="1" as="geometry" />
        </mxCell>
        <mxCell id="gdIUitbwl2ph-0HCh6gZ-39" value="gp :=glist.pop()" style="rounded=1;whiteSpace=wrap;html=1;" vertex="1" parent="1">
          <mxGeometry x="414" y="980" width="100" height="50" as="geometry" />
        </mxCell>
        <mxCell id="gdIUitbwl2ph-0HCh6gZ-44" value="" style="edgeStyle=orthogonalEdgeStyle;rounded=0;orthogonalLoop=1;jettySize=auto;html=1;" edge="1" parent="1" source="gdIUitbwl2ph-0HCh6gZ-40" target="gdIUitbwl2ph-0HCh6gZ-41">
          <mxGeometry relative="1" as="geometry" />
        </mxCell>
        <mxCell id="gdIUitbwl2ph-0HCh6gZ-40" value="gp.schedlink=0" style="rounded=1;whiteSpace=wrap;html=1;" vertex="1" parent="1">
          <mxGeometry x="540" y="980" width="100" height="50" as="geometry" />
        </mxCell>
        <mxCell id="gdIUitbwl2ph-0HCh6gZ-46" style="edgeStyle=orthogonalEdgeStyle;rounded=0;orthogonalLoop=1;jettySize=auto;html=1;" edge="1" parent="1" source="gdIUitbwl2ph-0HCh6gZ-41">
          <mxGeometry relative="1" as="geometry">
            <mxPoint x="320" y="950" as="targetPoint" />
            <Array as="points">
              <mxPoint x="790" y="1005" />
              <mxPoint x="790" y="950" />
            </Array>
          </mxGeometry>
        </mxCell>
        <mxCell id="gdIUitbwl2ph-0HCh6gZ-41" value="goready(gp, 3)" style="rounded=1;whiteSpace=wrap;html=1;" vertex="1" parent="1">
          <mxGeometry x="670" y="980" width="100" height="50" as="geometry" />
        </mxCell>
        <mxCell id="gdIUitbwl2ph-0HCh6gZ-47" value="end" style="rounded=1;whiteSpace=wrap;html=1;fillColor=#d5e8d4;strokeColor=#82b366;" vertex="1" parent="1">
          <mxGeometry x="270" y="1080" width="100" height="50" as="geometry" />
        </mxCell>
        <mxCell id="gdIUitbwl2ph-0HCh6gZ-52" value="" style="edgeStyle=orthogonalEdgeStyle;rounded=0;orthogonalLoop=1;jettySize=auto;html=1;" edge="1" parent="1" source="gdIUitbwl2ph-0HCh6gZ-50" target="gdIUitbwl2ph-0HCh6gZ-38">
          <mxGeometry relative="1" as="geometry" />
        </mxCell>
        <mxCell id="gdIUitbwl2ph-0HCh6gZ-50" value="UNLOCK" style="rounded=1;whiteSpace=wrap;html=1;" vertex="1" parent="1">
          <mxGeometry x="270" y="890" width="100" height="50" as="geometry" />
        </mxCell>
      </root>
    </mxGraphModel>
  </diagram>
</mxfile>
